<?xml version="1.0" encoding="UTF-8" standalone="no"?>
<!DOCTYPE svg PUBLIC "-//W3C//DTD SVG 1.1//EN"
 "http://www.w3.org/Graphics/SVG/1.1/DTD/svg11.dtd">
<!-- Generated by graphviz version 2.38.0 (20140413.2041)
 -->
<!-- Title: 1 Pages: 1 -->
<svg width="225pt" height="287pt"
 viewBox="0.00 0.00 225.34 286.74" xmlns="http://www.w3.org/2000/svg" xmlns:xlink="http://www.w3.org/1999/xlink">
<g id="graph0" class="graph" transform="scale(1 1) rotate(0) translate(114.347 137.176)">
<title>1</title>
<polygon fill="white" stroke="none" points="-114.347,149.565 -114.347,-137.176 110.998,-137.176 110.998,149.565 -114.347,149.565"/>
<!-- n9 -->
<g id="node1" class="node"><title>n9</title>
<ellipse fill="none" stroke="black" cx="-58.0726" cy="-113.678" rx="19.4965" ry="19.4965"/>
<text text-anchor="middle" x="-58.0726" y="-109.978" font-family="Times,serif" font-size="14.00">n9</text>
</g>
<!-- n10 -->
<g id="node2" class="node"><title>n10</title>
<ellipse fill="none" stroke="black" cx="69.9925" cy="-106.787" rx="24.0958" ry="24.0958"/>
<text text-anchor="middle" x="69.9925" y="-103.087" font-family="Times,serif" font-size="14.00">n10</text>
</g>
<!-- n9&#45;&#45;n10 -->
<g id="edge1" class="edge"><title>n9&#45;&#45;n10</title>
<path fill="none" stroke="black" d="M-38.3431,-112.616C-15.7507,-111.4 21.2739,-109.408 45.6419,-108.097"/>
</g>
<!-- n8 -->
<g id="node3" class="node"><title>n8</title>
<ellipse fill="none" stroke="black" cx="23.7304" cy="41.2197" rx="19.4965" ry="19.4965"/>
<text text-anchor="middle" x="23.7304" y="44.9197" font-family="Times,serif" font-size="14.00">n8</text>
</g>
<!-- n8&#45;&#45;n9 -->
<g id="edge3" class="edge"><title>n8&#45;&#45;n9</title>
<path fill="none" stroke="black" d="M14.5056,23.7521C-1.20533,-5.99714 -32.9827,-66.169 -48.756,-96.0363"/>
</g>
<!-- n8&#45;&#45;n10 -->
<g id="edge2" class="edge"><title>n8&#45;&#45;n10</title>
<path fill="none" stroke="black" d="M29.5895,22.4746C38.0506,-4.59487 53.6751,-54.5822 62.8164,-83.828"/>
</g>
<!-- n7 -->
<g id="node4" class="node"><title>n7</title>
<ellipse fill="none" stroke="black" cx="-21.4827" cy="-52.2276" rx="19.4965" ry="19.4965"/>
<text text-anchor="middle" x="-21.4827" y="-48.5276" font-family="Times,serif" font-size="14.00">n7</text>
</g>
<!-- n7&#45;&#45;n9 -->
<g id="edge5" class="edge"><title>n7&#45;&#45;n9</title>
<path fill="none" stroke="black" d="M-31.481,-69.0191C-36.6439,-77.6898 -42.9252,-88.2387 -48.0863,-96.9065"/>
</g>
<!-- n7&#45;&#45;n10 -->
<g id="edge4" class="edge"><title>n7&#45;&#45;n10</title>
<path fill="none" stroke="black" d="M-4.70471,-62.2345C10.4593,-71.2789 32.8381,-84.6264 49.1459,-94.3529"/>
</g>
<!-- n7&#45;&#45;n8 -->
<g id="edge6" class="edge"><title>n7&#45;&#45;n8</title>
<path fill="none" stroke="black" d="M-12.9784,-34.6509C-4.94621,-18.0497 7.04069,6.72508 15.1106,23.4041"/>
</g>
<!-- n6 -->
<g id="node5" class="node"><title>n6</title>
<ellipse fill="none" stroke="black" cx="40.5031" cy="-39.2277" rx="19.4965" ry="19.4965"/>
<text text-anchor="middle" x="40.5031" y="-35.5277" font-family="Times,serif" font-size="14.00">n6</text>
</g>
<!-- n6&#45;&#45;n9 -->
<g id="edge8" class="edge"><title>n6&#45;&#45;n9</title>
<path fill="none" stroke="black" d="M24.6652,-51.1894C6.2699,-65.0826 -23.8955,-87.8652 -42.274,-101.746"/>
</g>
<!-- n6&#45;&#45;n10 -->
<g id="edge7" class="edge"><title>n6&#45;&#45;n10</title>
<path fill="none" stroke="black" d="M48.4057,-57.3322C52.0226,-65.6183 56.3452,-75.5213 60.1691,-84.2816"/>
</g>
<!-- n6&#45;&#45;n8 -->
<g id="edge9" class="edge"><title>n6&#45;&#45;n8</title>
<path fill="none" stroke="black" d="M36.4429,-19.7536C33.8058,-7.10529 30.3828,9.31249 27.7532,21.925"/>
</g>
<!-- n6&#45;&#45;n7 -->
<g id="edge10" class="edge"><title>n6&#45;&#45;n7</title>
<path fill="none" stroke="black" d="M21.2302,-43.2697C13.838,-44.82 5.40273,-46.5891 -2.00819,-48.1433"/>
</g>
<!-- n5 -->
<g id="node6" class="node"><title>n5</title>
<ellipse fill="none" stroke="black" cx="-83.4874" cy="-21.0142" rx="19.4965" ry="19.4965"/>
<text text-anchor="middle" x="-83.4874" y="-17.3142" font-family="Times,serif" font-size="14.00">n5</text>
</g>
<!-- n5&#45;&#45;n9 -->
<g id="edge12" class="edge"><title>n5&#45;&#45;n9</title>
<path fill="none" stroke="black" d="M-78.2214,-40.2142C-73.8305,-56.2235 -67.6094,-78.906 -63.2449,-94.8194"/>
</g>
<!-- n5&#45;&#45;n10 -->
<g id="edge11" class="edge"><title>n5&#45;&#45;n10</title>
<path fill="none" stroke="black" d="M-66.1796,-30.6867C-37.8786,-46.5027 18.2095,-77.8476 48.8311,-94.9605"/>
</g>
<!-- n5&#45;&#45;n8 -->
<g id="edge13" class="edge"><title>n5&#45;&#45;n8</title>
<path fill="none" stroke="black" d="M-66.261,-11.0153C-46.253,0.598276 -13.443,19.6427 6.54676,31.2456"/>
</g>
<!-- n5&#45;&#45;n7 -->
<g id="edge14" class="edge"><title>n5&#45;&#45;n7</title>
<path fill="none" stroke="black" d="M-65.8852,-29.8752C-57.4356,-34.1288 -47.3415,-39.2101 -38.9143,-43.4525"/>
</g>
<!-- n5&#45;&#45;n6 -->
<g id="edge15" class="edge"><title>n5&#45;&#45;n6</title>
<path fill="none" stroke="black" d="M-64.1139,-23.8601C-40.9565,-27.2618 -2.42111,-32.9224 20.8564,-36.3417"/>
</g>
<!-- n4 -->
<g id="node7" class="node"><title>n4</title>
<ellipse fill="none" stroke="black" cx="-38.3128" cy="28.7753" rx="19.4965" ry="19.4965"/>
<text text-anchor="middle" x="-38.3128" y="32.4753" font-family="Times,serif" font-size="14.00">n4</text>
</g>
<!-- n4&#45;&#45;n9 -->
<g id="edge17" class="edge"><title>n4&#45;&#45;n9</title>
<path fill="none" stroke="black" d="M-41.0189,9.26647C-44.7817,-17.8607 -51.5566,-66.7027 -55.3358,-93.9474"/>
</g>
<!-- n4&#45;&#45;n10 -->
<g id="edge16" class="edge"><title>n4&#45;&#45;n10</title>
<path fill="none" stroke="black" d="M-26.0993,13.4881C-6.18361,-11.4397 33.232,-60.7747 54.8797,-87.8704"/>
</g>
<!-- n4&#45;&#45;n8 -->
<g id="edge18" class="edge"><title>n4&#45;&#45;n8</title>
<path fill="none" stroke="black" d="M-19.022,32.6445C-11.623,34.1286 -3.1799,35.8221 4.23788,37.31"/>
</g>
<!-- n4&#45;&#45;n7 -->
<g id="edge19" class="edge"><title>n4&#45;&#45;n7</title>
<path fill="none" stroke="black" d="M-34.3243,9.57871C-31.6609,-3.24022 -28.1704,-20.0397 -25.5009,-32.8881"/>
</g>
<!-- n4&#45;&#45;n6 -->
<g id="edge20" class="edge"><title>n4&#45;&#45;n6</title>
<path fill="none" stroke="black" d="M-23.4881,15.9844C-9.48628,3.90351 11.4094,-14.1255 25.4769,-26.263"/>
</g>
<!-- n4&#45;&#45;n5 -->
<g id="edge21" class="edge"><title>n4&#45;&#45;n5</title>
<path fill="none" stroke="black" d="M-51.6223,14.1061C-57.4522,7.68065 -64.2801,0.155234 -70.1169,-6.27782"/>
</g>
<!-- n3 -->
<g id="node8" class="node"><title>n3</title>
<ellipse fill="none" stroke="black" cx="87.4996" cy="-3.15828" rx="19.4965" ry="19.4965"/>
<text text-anchor="middle" x="87.4996" y="0.541717" font-family="Times,serif" font-size="14.00">n3</text>
</g>
<!-- n3&#45;&#45;n9 -->
<g id="edge23" class="edge"><title>n3&#45;&#45;n9</title>
<path fill="none" stroke="black" d="M71.9209,-14.9858C44.049,-36.1463 -14.0565,-80.2604 -42.1645,-101.6"/>
</g>
<!-- n3&#45;&#45;n10 -->
<g id="edge22" class="edge"><title>n3&#45;&#45;n10</title>
<path fill="none" stroke="black" d="M84.2067,-22.65C81.3144,-39.7699 77.0979,-64.7284 74.0083,-83.0162"/>
</g>
<!-- n3&#45;&#45;n8 -->
<g id="edge24" class="edge"><title>n3&#45;&#45;n8</title>
<path fill="none" stroke="black" d="M71.408,8.04016C61.8148,14.7162 49.6699,23.168 40.0387,29.8705"/>
</g>
<!-- n3&#45;&#45;n7 -->
<g id="edge25" class="edge"><title>n3&#45;&#45;n7</title>
<path fill="none" stroke="black" d="M69.5034,-11.2611C49.3108,-20.3528 16.7439,-35.0161 -3.45971,-44.1127"/>
</g>
<!-- n3&#45;&#45;n6 -->
<g id="edge26" class="edge"><title>n3&#45;&#45;n6</title>
<path fill="none" stroke="black" d="M71.8505,-15.1689C66.8305,-19.0216 61.2706,-23.2888 56.2442,-27.1466"/>
</g>
<!-- n3&#45;&#45;n5 -->
<g id="edge27" class="edge"><title>n3&#45;&#45;n5</title>
<path fill="none" stroke="black" d="M67.8852,-5.20659C34.9902,-8.64177 -30.9214,-15.5248 -63.8391,-18.9624"/>
</g>
<!-- n3&#45;&#45;n4 -->
<g id="edge28" class="edge"><title>n3&#45;&#45;n4</title>
<path fill="none" stroke="black" d="M68.3914,1.69173C44.7444,7.6938 4.70505,17.8565 -19.0248,23.8796"/>
</g>
<!-- n2 -->
<g id="node9" class="node"><title>n2</title>
<ellipse fill="none" stroke="black" cx="-90.8483" cy="63.7621" rx="19.4965" ry="19.4965"/>
<text text-anchor="middle" x="-90.8483" y="67.4621" font-family="Times,serif" font-size="14.00">n2</text>
</g>
<!-- n2&#45;&#45;n9 -->
<g id="edge29" class="edge"><title>n2&#45;&#45;n9</title>
<path fill="none" stroke="black" d="M-87.2783,44.4351C-80.9736,10.303 -67.9397,-60.2595 -61.6382,-94.3746"/>
</g>
<!-- n2&#45;&#45;n8 -->
<g id="edge30" class="edge"><title>n2&#45;&#45;n8</title>
<path fill="none" stroke="black" d="M-71.6704,59.989C-50.5198,55.8278 -16.6856,49.1712 4.48994,45.0051"/>
</g>
<!-- n2&#45;&#45;n7 -->
<g id="edge31" class="edge"><title>n2&#45;&#45;n7</title>
<path fill="none" stroke="black" d="M-80.6131,46.6474C-67.4231,24.5916 -44.6346,-13.5141 -31.5343,-35.4198"/>
</g>
<!-- n2&#45;&#45;n6 -->
<g id="edge32" class="edge"><title>n2&#45;&#45;n6</title>
<path fill="none" stroke="black" d="M-75.2647,51.5434C-49.985,31.7221 -0.326855,-7.21384 24.9398,-27.0249"/>
</g>
<!-- n2&#45;&#45;n5 -->
<g id="edge33" class="edge"><title>n2&#45;&#45;n5</title>
<path fill="none" stroke="black" d="M-89.141,44.0996C-87.9519,30.4038 -86.3725,12.214 -85.1854,-1.45837"/>
</g>
<!-- n2&#45;&#45;n4 -->
<g id="edge34" class="edge"><title>n2&#45;&#45;n4</title>
<path fill="none" stroke="black" d="M-74.5137,52.8838C-68.2486,48.7114 -61.0993,43.9503 -54.8182,39.7673"/>
</g>
<!-- n2&#45;&#45;n3 -->
<g id="edge35" class="edge"><title>n2&#45;&#45;n3</title>
<path fill="none" stroke="black" d="M-72.4337,56.8525C-38.169,43.9955 34.9965,16.5421 69.1852,3.71373"/>
</g>
<!-- n1 -->
<g id="node10" class="node"><title>n1</title>
<ellipse fill="none" stroke="black" cx="79.8816" cy="76.268" rx="19.4965" ry="19.4965"/>
<text text-anchor="middle" x="79.8816" y="79.968" font-family="Times,serif" font-size="14.00">n1</text>
</g>
<!-- n1&#45;&#45;n10 -->
<g id="edge36" class="edge"><title>n1&#45;&#45;n10</title>
<path fill="none" stroke="black" d="M78.8233,56.6779C76.9996,22.9208 73.2707,-46.1048 71.2923,-82.726"/>
</g>
<!-- n1&#45;&#45;n8 -->
<g id="edge37" class="edge"><title>n1&#45;&#45;n8</title>
<path fill="none" stroke="black" d="M63.3381,65.9419C56.0917,61.4189 47.6047,56.1215 40.3497,51.5931"/>
</g>
<!-- n1&#45;&#45;n7 -->
<g id="edge38" class="edge"><title>n1&#45;&#45;n7</title>
<path fill="none" stroke="black" d="M67.6547,60.7684C48.172,36.071 10.2975,-11.9411 -9.2124,-36.673"/>
</g>
<!-- n1&#45;&#45;n6 -->
<g id="edge39" class="edge"><title>n1&#45;&#45;n6</title>
<path fill="none" stroke="black" d="M73.5548,57.7116C66.2063,36.1588 54.156,0.815697 46.8142,-20.7174"/>
</g>
<!-- n1&#45;&#45;n5 -->
<g id="edge40" class="edge"><title>n1&#45;&#45;n5</title>
<path fill="none" stroke="black" d="M63.0136,66.2235C31.7082,47.5819 -35.0459,7.83149 -66.4664,-10.8786"/>
</g>
<!-- n1&#45;&#45;n4 -->
<g id="edge41" class="edge"><title>n1&#45;&#45;n4</title>
<path fill="none" stroke="black" d="M61.6728,68.9513C39.5266,60.0526 2.35455,45.1162 -19.8885,36.1785"/>
</g>
<!-- n1&#45;&#45;n3 -->
<g id="edge42" class="edge"><title>n1&#45;&#45;n3</title>
<path fill="none" stroke="black" d="M81.7647,56.6345C82.9367,44.4149 84.4389,28.7534 85.6118,16.5246"/>
</g>
<!-- n1&#45;&#45;n2 -->
<g id="edge43" class="edge"><title>n1&#45;&#45;n2</title>
<path fill="none" stroke="black" d="M60.2967,74.8334C27.4511,72.4275 -38.3613,67.6067 -71.2296,65.1991"/>
</g>
<!-- n0 -->
<g id="node11" class="node"><title>n0</title>
<ellipse fill="none" stroke="black" cx="-9.40349" cy="126.067" rx="19.4965" ry="19.4965"/>
<text text-anchor="middle" x="-9.40349" y="129.767" font-family="Times,serif" font-size="14.00">n0</text>
</g>
<!-- n0&#45;&#45;n8 -->
<g id="edge44" class="edge"><title>n0&#45;&#45;n8</title>
<path fill="none" stroke="black" d="M-2.21393,107.656C3.34373,93.4247 11.0007,73.8171 16.5549,59.5944"/>
</g>
<!-- n0&#45;&#45;n7 -->
<g id="edge45" class="edge"><title>n0&#45;&#45;n7</title>
<path fill="none" stroke="black" d="M-10.7423,106.305C-13.0703,71.9426 -17.8369,1.5852 -20.1562,-32.6489"/>
</g>
<!-- n0&#45;&#45;n6 -->
<g id="edge46" class="edge"><title>n0&#45;&#45;n6</title>
<path fill="none" stroke="black" d="M-3.67857,107.106C5.94824,75.2208 25.2631,11.2483 34.8449,-20.4874"/>
</g>
<!-- n0&#45;&#45;n5 -->
<g id="edge47" class="edge"><title>n0&#45;&#45;n5</title>
<path fill="none" stroke="black" d="M-18.1928,108.617C-32.4509,80.3102 -60.4588,24.7053 -74.7095,-3.5872"/>
</g>
<!-- n0&#45;&#45;n4 -->
<g id="edge48" class="edge"><title>n0&#45;&#45;n4</title>
<path fill="none" stroke="black" d="M-14.9775,107.308C-20.0967,90.08 -27.6421,64.6864 -32.7559,47.4765"/>
</g>
<!-- n0&#45;&#45;n3 -->
<g id="edge49" class="edge"><title>n0&#45;&#45;n3</title>
<path fill="none" stroke="black" d="M2.47874,110.221C21.0771,85.4196 56.8622,37.6983 75.5202,12.8169"/>
</g>
<!-- n0&#45;&#45;n2 -->
<g id="edge50" class="edge"><title>n0&#45;&#45;n2</title>
<path fill="none" stroke="black" d="M-25.1069,114.054C-39.5289,103.021 -60.7864,86.7593 -75.1931,75.7382"/>
</g>
<!-- n0&#45;&#45;n1 -->
<g id="edge51" class="edge"><title>n0&#45;&#45;n1</title>
<path fill="none" stroke="black" d="M7.81158,116.465C23.6219,107.647 46.9258,94.6492 62.7194,85.8402"/>
</g>
</g>
</svg>
