<?xml version="1.0" encoding="UTF-8" standalone="no"?>
<!DOCTYPE svg PUBLIC "-//W3C//DTD SVG 1.1//EN"
 "http://www.w3.org/Graphics/SVG/1.1/DTD/svg11.dtd">
<!-- Generated by graphviz version 2.38.0 (20140413.2041)
 -->
<!-- Title: 1 Pages: 1 -->
<svg width="273pt" height="268pt"
 viewBox="0.00 0.00 273.14 268.10" xmlns="http://www.w3.org/2000/svg" xmlns:xlink="http://www.w3.org/1999/xlink">
<g id="graph0" class="graph" transform="scale(1 1) rotate(0) translate(140.161 133.073)">
<title>1</title>
<polygon fill="white" stroke="none" points="-140.161,135.029 -140.161,-133.073 132.976,-133.073 132.976,135.029 -140.161,135.029"/>
<!-- n9 -->
<g id="node1" class="node"><title>n9</title>
<ellipse fill="none" stroke="black" cx="-116.662" cy="-15.5124" rx="19.4965" ry="19.4965"/>
<text text-anchor="middle" x="-116.662" y="-11.8124" font-family="Times,serif" font-size="14.00">n9</text>
</g>
<!-- n10 -->
<g id="node2" class="node"><title>n10</title>
<ellipse fill="none" stroke="black" cx="104.664" cy="-44.2546" rx="24.0958" ry="24.0958"/>
<text text-anchor="middle" x="104.664" y="-40.5546" font-family="Times,serif" font-size="14.00">n10</text>
</g>
<!-- n9&#45;&#45;n10 -->
<g id="edge1" class="edge"><title>n9&#45;&#45;n10</title>
<path fill="none" stroke="black" d="M-97.0212,-18.0631C-56.396,-23.3388 36.7395,-35.4337 80.7681,-41.1514"/>
</g>
<!-- n8 -->
<g id="node3" class="node"><title>n8</title>
<ellipse fill="none" stroke="black" cx="-13.867" cy="111.531" rx="19.4965" ry="19.4965"/>
<text text-anchor="middle" x="-13.867" y="115.231" font-family="Times,serif" font-size="14.00">n8</text>
</g>
<!-- n8&#45;&#45;n9 -->
<g id="edge3" class="edge"><title>n8&#45;&#45;n9</title>
<path fill="none" stroke="black" d="M-26.4717,95.9526C-46.3082,71.4371 -84.5753,24.1436 -104.276,-0.203865"/>
</g>
<!-- n8&#45;&#45;n10 -->
<g id="edge2" class="edge"><title>n8&#45;&#45;n10</title>
<path fill="none" stroke="black" d="M-1.84929,95.7358C20.045,66.9602 66.3519,6.09916 90.039,-25.0327"/>
</g>
<!-- n7 -->
<g id="node4" class="node"><title>n7</title>
<ellipse fill="none" stroke="black" cx="-13.2758" cy="-109.575" rx="19.4965" ry="19.4965"/>
<text text-anchor="middle" x="-13.2758" y="-105.875" font-family="Times,serif" font-size="14.00">n7</text>
</g>
<!-- n7&#45;&#45;n9 -->
<g id="edge5" class="edge"><title>n7&#45;&#45;n9</title>
<path fill="none" stroke="black" d="M-28.0886,-96.0979C-47.854,-78.1151 -82.6297,-46.4758 -102.21,-28.661"/>
</g>
<!-- n7&#45;&#45;n10 -->
<g id="edge4" class="edge"><title>n7&#45;&#45;n10</title>
<path fill="none" stroke="black" d="M3.87373,-100.077C24.9566,-88.4 60.7328,-68.5857 83.5034,-55.9744"/>
</g>
<!-- n7&#45;&#45;n8 -->
<g id="edge6" class="edge"><title>n7&#45;&#45;n8</title>
<path fill="none" stroke="black" d="M-13.3282,-89.9531C-13.4404,-47.9946 -13.7025,50.0336 -13.8146,91.9529"/>
</g>
<!-- n6 -->
<g id="node5" class="node"><title>n6</title>
<ellipse fill="none" stroke="black" cx="53.5911" cy="-95.8008" rx="19.4965" ry="19.4965"/>
<text text-anchor="middle" x="53.5911" y="-92.1008" font-family="Times,serif" font-size="14.00">n6</text>
</g>
<!-- n6&#45;&#45;n9 -->
<g id="edge8" class="edge"><title>n6&#45;&#45;n9</title>
<path fill="none" stroke="black" d="M35.6928,-87.3602C2.90881,-71.9 -66.399,-39.2157 -99.0039,-23.8398"/>
</g>
<!-- n6&#45;&#45;n10 -->
<g id="edge7" class="edge"><title>n6&#45;&#45;n10</title>
<path fill="none" stroke="black" d="M67.5471,-81.7155C73.6903,-75.5154 80.9679,-68.1704 87.4444,-61.6339"/>
</g>
<!-- n6&#45;&#45;n8 -->
<g id="edge9" class="edge"><title>n6&#45;&#45;n8</title>
<path fill="none" stroke="black" d="M47.4857,-77.0358C34.6424,-37.5623 4.96457,53.6521 -7.82396,92.9574"/>
</g>
<!-- n6&#45;&#45;n7 -->
<g id="edge10" class="edge"><title>n6&#45;&#45;n7</title>
<path fill="none" stroke="black" d="M34.2504,-99.7848C25.4563,-101.596 15.0698,-103.736 6.25309,-105.552"/>
</g>
<!-- n5 -->
<g id="node6" class="node"><title>n5</title>
<ellipse fill="none" stroke="black" cx="-74.6324" cy="-80.1201" rx="19.4965" ry="19.4965"/>
<text text-anchor="middle" x="-74.6324" y="-76.4201" font-family="Times,serif" font-size="14.00">n5</text>
</g>
<!-- n5&#45;&#45;n9 -->
<g id="edge12" class="edge"><title>n5&#45;&#45;n9</title>
<path fill="none" stroke="black" d="M-85.4562,-63.482C-91.7801,-53.7611 -99.7285,-41.5429 -106.021,-31.8705"/>
</g>
<!-- n5&#45;&#45;n10 -->
<g id="edge11" class="edge"><title>n5&#45;&#45;n10</title>
<path fill="none" stroke="black" d="M-55.4445,-76.2819C-22.4707,-69.686 44.859,-56.2177 80.8029,-49.0277"/>
</g>
<!-- n5&#45;&#45;n8 -->
<g id="edge13" class="edge"><title>n5&#45;&#45;n8</title>
<path fill="none" stroke="black" d="M-68.6953,-61.3949C-57.0784,-24.7557 -31.4644,56.0292 -19.8282,92.7294"/>
</g>
<!-- n5&#45;&#45;n7 -->
<g id="edge14" class="edge"><title>n5&#45;&#45;n7</title>
<path fill="none" stroke="black" d="M-56.8855,-88.6396C-48.816,-92.5134 -39.2855,-97.0886 -31.1953,-100.972"/>
</g>
<!-- n5&#45;&#45;n6 -->
<g id="edge15" class="edge"><title>n5&#45;&#45;n6</title>
<path fill="none" stroke="black" d="M-55.158,-82.5017C-31.0578,-85.4489 9.74886,-90.4392 33.9334,-93.3968"/>
</g>
<!-- n4 -->
<g id="node7" class="node"><title>n4</title>
<ellipse fill="none" stroke="black" cx="-88.3087" cy="78.623" rx="19.4965" ry="19.4965"/>
<text text-anchor="middle" x="-88.3087" y="82.323" font-family="Times,serif" font-size="14.00">n4</text>
</g>
<!-- n4&#45;&#45;n9 -->
<g id="edge17" class="edge"><title>n4&#45;&#45;n9</title>
<path fill="none" stroke="black" d="M-94.0465,59.5733C-98.9981,43.1338 -106.109,19.5245 -111.03,3.18769"/>
</g>
<!-- n4&#45;&#45;n10 -->
<g id="edge16" class="edge"><title>n4&#45;&#45;n10</title>
<path fill="none" stroke="black" d="M-71.8559,68.1465C-36.6739,45.744 45.7898,-6.76567 84.2467,-31.2535"/>
</g>
<!-- n4&#45;&#45;n8 -->
<g id="edge18" class="edge"><title>n4&#45;&#45;n8</title>
<path fill="none" stroke="black" d="M-70.2884,86.589C-58.5843,91.7629 -43.3922,98.4787 -31.7213,103.638"/>
</g>
<!-- n4&#45;&#45;n7 -->
<g id="edge19" class="edge"><title>n4&#45;&#45;n7</title>
<path fill="none" stroke="black" d="M-80.9776,60.2351C-66.5962,24.1636 -34.8423,-55.4815 -20.5261,-91.3893"/>
</g>
<!-- n4&#45;&#45;n6 -->
<g id="edge20" class="edge"><title>n4&#45;&#45;n6</title>
<path fill="none" stroke="black" d="M-75.9642,63.4491C-49.1277,30.4616 14.2719,-47.4695 41.1742,-80.5378"/>
</g>
<!-- n4&#45;&#45;n5 -->
<g id="edge21" class="edge"><title>n4&#45;&#45;n5</title>
<path fill="none" stroke="black" d="M-86.6317,59.158C-84.0069,28.6909 -78.9564,-29.931 -76.3231,-60.4959"/>
</g>
<!-- n3 -->
<g id="node8" class="node"><title>n3</title>
<ellipse fill="none" stroke="black" cx="109.478" cy="35.7478" rx="19.4965" ry="19.4965"/>
<text text-anchor="middle" x="109.478" y="39.4478" font-family="Times,serif" font-size="14.00">n3</text>
</g>
<!-- n3&#45;&#45;n9 -->
<g id="edge23" class="edge"><title>n3&#45;&#45;n9</title>
<path fill="none" stroke="black" d="M90.1971,31.3773C47.4729,21.6929 -54.7518,-1.47886 -97.4307,-11.1531"/>
</g>
<!-- n3&#45;&#45;n10 -->
<g id="edge22" class="edge"><title>n3&#45;&#45;n10</title>
<path fill="none" stroke="black" d="M108.288,15.9719C107.631,5.05182 106.81,-8.59724 106.115,-20.1394"/>
</g>
<!-- n3&#45;&#45;n8 -->
<g id="edge24" class="edge"><title>n3&#45;&#45;n8</title>
<path fill="none" stroke="black" d="M92.8429,45.9682C69.3017,60.4318 26.5102,86.7229 2.8982,101.23"/>
</g>
<!-- n3&#45;&#45;n7 -->
<g id="edge25" class="edge"><title>n3&#45;&#45;n7</title>
<path fill="none" stroke="black" d="M96.8033,20.7431C73.2808,-7.10418 23.1226,-66.4843 -0.486374,-94.4339"/>
</g>
<!-- n3&#45;&#45;n6 -->
<g id="edge26" class="edge"><title>n3&#45;&#45;n6</title>
<path fill="none" stroke="black" d="M101.824,17.7323C91.1817,-7.31827 72.0202,-52.4215 61.3316,-77.5808"/>
</g>
<!-- n3&#45;&#45;n5 -->
<g id="edge27" class="edge"><title>n3&#45;&#45;n5</title>
<path fill="none" stroke="black" d="M92.8145,25.2609C57.8505,3.25668 -22.8275,-47.5172 -57.8741,-69.5735"/>
</g>
<!-- n3&#45;&#45;n4 -->
<g id="edge28" class="edge"><title>n3&#45;&#45;n4</title>
<path fill="none" stroke="black" d="M90.153,39.9369C52.2437,48.1547 -31.4594,66.2995 -69.1967,74.48"/>
</g>
<!-- n2 -->
<g id="node9" class="node"><title>n2</title>
<ellipse fill="none" stroke="black" cx="-51.3048" cy="16.9648" rx="19.4965" ry="19.4965"/>
<text text-anchor="middle" x="-51.3048" y="20.6648" font-family="Times,serif" font-size="14.00">n2</text>
</g>
<!-- n2&#45;&#45;n9 -->
<g id="edge30" class="edge"><title>n2&#45;&#45;n9</title>
<path fill="none" stroke="black" d="M-68.8194,8.26148C-78.1968,3.60172 -89.7147,-2.12171 -99.0995,-6.78511"/>
</g>
<!-- n2&#45;&#45;n10 -->
<g id="edge29" class="edge"><title>n2&#45;&#45;n10</title>
<path fill="none" stroke="black" d="M-33.1079,9.82231C-4.50072,-1.40629 50.9318,-23.1641 82.0553,-35.3804"/>
</g>
<!-- n2&#45;&#45;n8 -->
<g id="edge31" class="edge"><title>n2&#45;&#45;n8</title>
<path fill="none" stroke="black" d="M-44.0864,35.198C-37.457,51.9435 -27.6856,76.6256 -21.0632,93.3533"/>
</g>
<!-- n2&#45;&#45;n7 -->
<g id="edge32" class="edge"><title>n2&#45;&#45;n7</title>
<path fill="none" stroke="black" d="M-45.6115,-1.97947C-38.4422,-25.8347 -26.1956,-66.5847 -19.008,-90.501"/>
</g>
<!-- n2&#45;&#45;n6 -->
<g id="edge33" class="edge"><title>n2&#45;&#45;n6</title>
<path fill="none" stroke="black" d="M-38.0196,2.68294C-17.9527,-18.8895 19.8846,-59.5654 40.0825,-81.2787"/>
</g>
<!-- n2&#45;&#45;n5 -->
<g id="edge34" class="edge"><title>n2&#45;&#45;n5</title>
<path fill="none" stroke="black" d="M-55.9136,-2.21608C-60.0032,-19.2364 -65.9464,-43.9708 -70.0332,-60.9791"/>
</g>
<!-- n2&#45;&#45;n4 -->
<g id="edge35" class="edge"><title>n2&#45;&#45;n4</title>
<path fill="none" stroke="black" d="M-61.4163,33.8131C-66.6376,42.5132 -72.9899,53.0979 -78.2094,61.795"/>
</g>
<!-- n2&#45;&#45;n3 -->
<g id="edge36" class="edge"><title>n2&#45;&#45;n3</title>
<path fill="none" stroke="black" d="M-31.9107,19.2304C-1.00753,22.8406 59.0685,29.8588 90.0148,33.4741"/>
</g>
<!-- n1 -->
<g id="node10" class="node"><title>n1</title>
<ellipse fill="none" stroke="black" cx="58.8732" cy="96.7356" rx="19.4965" ry="19.4965"/>
<text text-anchor="middle" x="58.8732" y="100.436" font-family="Times,serif" font-size="14.00">n1</text>
</g>
<!-- n1&#45;&#45;n9 -->
<g id="edge38" class="edge"><title>n1&#45;&#45;n9</title>
<path fill="none" stroke="black" d="M42.3592,86.1756C8.90357,64.782 -66.5387,16.5397 -100.065,-4.89869"/>
</g>
<!-- n1&#45;&#45;n10 -->
<g id="edge37" class="edge"><title>n1&#45;&#45;n10</title>
<path fill="none" stroke="black" d="M64.9539,78.0132C73.2741,52.3952 88.1971,6.44751 97.1896,-21.2404"/>
</g>
<!-- n1&#45;&#45;n8 -->
<g id="edge39" class="edge"><title>n1&#45;&#45;n8</title>
<path fill="none" stroke="black" d="M39.7616,100.623C29.1541,102.78 15.9969,105.456 5.36955,107.618"/>
</g>
<!-- n1&#45;&#45;n7 -->
<g id="edge40" class="edge"><title>n1&#45;&#45;n7</title>
<path fill="none" stroke="black" d="M52.3432,78.0631C38.6069,38.7839 6.86529,-51.9813 -6.81251,-91.093"/>
</g>
<!-- n1&#45;&#45;n6 -->
<g id="edge41" class="edge"><title>n1&#45;&#45;n6</title>
<path fill="none" stroke="black" d="M58.3376,77.2146C57.3253,40.3122 55.1415,-39.2859 54.1281,-76.2281"/>
</g>
<!-- n1&#45;&#45;n5 -->
<g id="edge42" class="edge"><title>n1&#45;&#45;n5</title>
<path fill="none" stroke="black" d="M47.0255,81.0408C21.6905,47.4794 -37.4999,-30.9305 -62.8112,-64.4605"/>
</g>
<!-- n1&#45;&#45;n4 -->
<g id="edge43" class="edge"><title>n1&#45;&#45;n4</title>
<path fill="none" stroke="black" d="M39.3286,94.3304C11.178,90.8661 -40.4877,84.508 -68.6832,81.0381"/>
</g>
<!-- n1&#45;&#45;n3 -->
<g id="edge44" class="edge"><title>n1&#45;&#45;n3</title>
<path fill="none" stroke="black" d="M71.3822,81.6599C79.1091,72.3476 88.996,60.432 96.7611,51.0736"/>
</g>
<!-- n1&#45;&#45;n2 -->
<g id="edge45" class="edge"><title>n1&#45;&#45;n2</title>
<path fill="none" stroke="black" d="M42.616,84.9651C21.6654,69.7965 -14.531,43.5896 -35.3392,28.5242"/>
</g>
<!-- n0 -->
<g id="node11" class="node"><title>n0</title>
<ellipse fill="none" stroke="black" cx="31.4448" cy="5.66093" rx="19.4965" ry="19.4965"/>
<text text-anchor="middle" x="31.4448" y="9.36093" font-family="Times,serif" font-size="14.00">n0</text>
</g>
<!-- n0&#45;&#45;n9 -->
<g id="edge47" class="edge"><title>n0&#45;&#45;n9</title>
<path fill="none" stroke="black" d="M12.0824,2.89289C-16.3023,-1.16497 -68.9079,-8.68545 -97.2953,-12.7437"/>
</g>
<!-- n0&#45;&#45;n10 -->
<g id="edge46" class="edge"><title>n0&#45;&#45;n10</title>
<path fill="none" stroke="black" d="M47.6946,-5.41694C58.5644,-12.8272 72.9453,-22.631 84.5387,-30.5345"/>
</g>
<!-- n0&#45;&#45;n8 -->
<g id="edge48" class="edge"><title>n0&#45;&#45;n8</title>
<path fill="none" stroke="black" d="M23.7583,23.6203C15.426,43.0884 2.20425,73.9806 -6.14275,93.4831"/>
</g>
<!-- n0&#45;&#45;n7 -->
<g id="edge49" class="edge"><title>n0&#45;&#45;n7</title>
<path fill="none" stroke="black" d="M24.3587,-12.5985C16.0342,-34.0492 2.29927,-69.4411 -6.07472,-91.0191"/>
</g>
<!-- n0&#45;&#45;n6 -->
<g id="edge50" class="edge"><title>n0&#45;&#45;n6</title>
<path fill="none" stroke="black" d="M35.6104,-13.4232C39.5447,-31.4482 45.4161,-58.3477 49.3689,-76.4572"/>
</g>
<!-- n0&#45;&#45;n5 -->
<g id="edge51" class="edge"><title>n0&#45;&#45;n5</title>
<path fill="none" stroke="black" d="M16.2466,-6.6294C-3.91872,-22.9364 -39.3112,-51.5571 -59.4623,-67.8526"/>
</g>
<!-- n0&#45;&#45;n4 -->
<g id="edge52" class="edge"><title>n0&#45;&#45;n4</title>
<path fill="none" stroke="black" d="M14.7936,15.806C-7.9571,29.6673 -48.5351,54.3902 -71.4128,68.3289"/>
</g>
<!-- n0&#45;&#45;n3 -->
<g id="edge53" class="edge"><title>n0&#45;&#45;n3</title>
<path fill="none" stroke="black" d="M49.9375,12.7911C62.3766,17.5872 78.7065,23.8834 91.1178,28.6688"/>
</g>
<!-- n0&#45;&#45;n2 -->
<g id="edge54" class="edge"><title>n0&#45;&#45;n2</title>
<path fill="none" stroke="black" d="M11.8343,8.33978C-1.35663,10.1417 -18.6736,12.5073 -31.835,14.3051"/>
</g>
<!-- n0&#45;&#45;n1 -->
<g id="edge55" class="edge"><title>n0&#45;&#45;n1</title>
<path fill="none" stroke="black" d="M37.128,24.5317C41.8354,40.1623 48.4919,62.2651 53.1973,77.889"/>
</g>
</g>
</svg>
