ply
format ascii 1.0
element vertex 200
property double x
property double y
property double z
element face 200
property list uchar int vertex_index
end_header
306.0000000000000000 -60.0000000000000000   0.0000000000000000
304.9426598235270944 -59.9402123894188037   1.0000000000000000
306.5277436409035658 -60.8553609580692481   1.0000000000000000
307.0425147107694670 -59.9637513107949687   1.0000000000000000
305.4574308933929387 -59.0486027421445243   1.0000000000000000
306.0000000000000000  60.0000000000000000   0.0000000000000000
304.9426598235270944  60.0597876105811963   1.0000000000000000
306.5277436409035658  59.1446390419307519   1.0000000000000000
307.0425147107694670  60.0362486892050313   1.0000000000000000
305.4574308933929387  60.9513972578554757   1.0000000000000000
106.4828411111724336 293.0825899791606730  15.0000000000000000
105.4255009346995138 293.1423775897418409  16.0000000000000000
107.0105847520760136 292.2272290210914321  16.0000000000000000
107.5253558219418863 293.1188386683656972  16.0000000000000000
105.9402720045653865 294.0339872370161629  16.0000000000000000
-12.0809537799709901 311.5927639656707129  15.0000000000000000
-13.1382939564439134 311.6525515762518808  16.0000000000000000
-11.5532101390674118 310.7374030076014719  16.0000000000000000
-11.0384390692015391 311.6290126548757371  16.0000000000000000
-12.6235228865780389 312.5441612235262028  16.0000000000000000
-273.1497347409048757  150.4168288821877013   30.0000000000000000
-274.2070749173777813  150.4766164927688976   31.0000000000000000
-272.6219911000013099  149.5614679241184604   31.0000000000000000
-272.1072200301354087  150.4530775713927255   31.0000000000000000
-273.6923038475119370  151.3682261400431628   31.0000000000000000
-309.7270092731708360   36.1272712323689262   30.0000000000000000
-310.7843494496437415   36.1870588429501225   31.0000000000000000
-309.1992656322672701   35.2719102742996782   31.0000000000000000
-308.6844945624013690   36.1635199215739576   31.0000000000000000
-310.2695783797778972   37.0786684902244019   31.0000000000000000
-190.7503263515595222 -246.6785620940204922   45.0000000000000000
-191.8076665280324562 -246.6187744834392959   46.0000000000000000
-190.2225827106559564 -247.5339230520897331   46.0000000000000000
-189.7078116407900836 -246.6423134048154679   46.0000000000000000
-191.2928954581665835 -245.7271648361650307   46.0000000000000000
 -83.4707267194925748 -300.4473960295209167   45.0000000000000000
 -84.5280668959654946 -300.3876084189397488   46.0000000000000000
 -82.9429830785889948 -301.3027569875901577   46.0000000000000000
 -82.4282120087231220 -300.4111473403158925   46.0000000000000000
 -84.0132958260996219 -299.4959987716654268   46.0000000000000000
 214.3027059283890594 -226.5178806005618526   60.0000000000000000
 213.2453657519161254 -226.4580929899806563   61.0000000000000000
 214.8304495692926253 -227.3732415586310935   61.0000000000000000
 215.3452206391584980 -226.4816319113568284   61.0000000000000000
 213.7601368217819982 -225.5664833427063911   61.0000000000000000
 283.9760480338667890 -128.8161641373744715   60.0000000000000000
 282.9187078573938834 -128.7563765267932752   61.0000000000000000
 284.5037916747703548 -129.6715250954437124   61.0000000000000000
 285.0185627446362560 -128.7799154481694472   61.0000000000000000
 283.4334789272597277 -127.8647668795189958   61.0000000000000000
256.8633325601326760 176.7971390778218961  75.0000000000000000
255.8059923836597420 176.8569266884030924  76.0000000000000000
257.3910762010362419 175.9417781197526551  76.0000000000000000
257.9058472709021430 176.8333877670269203  76.0000000000000000
256.3207634535256148 177.7485363356773576  76.0000000000000000
171.0781610046329035 260.7072358552268838  75.0000000000000000
170.0208208281599696 260.7670234658080517  76.0000000000000000
171.6059046455364694 259.8518748971576429  76.0000000000000000
172.1206757154023421 260.7434845444319080  76.0000000000000000
170.5355918980258423 261.6586331130823737  76.0000000000000000
-135.0596229876747429  281.0603106780235976   90.0000000000000000
-136.1169631641476769  281.1200982886047655   91.0000000000000000
-134.5318793467711771  280.2049497199543566   91.0000000000000000
-134.0171082769053044  281.0965593672286218   91.0000000000000000
-135.6021920942818042  282.0117079358790875   91.0000000000000000
-231.1979392757344272  209.2451023910806498   90.0000000000000000
-232.2552794522073611  209.3048900016618461   91.0000000000000000
-230.6701956348308613  208.3897414330114088   91.0000000000000000
-230.1554245649649886  209.2813510802856740   91.0000000000000000
-231.7405083823414884  210.1964996489361113   91.0000000000000000
-298.5296178943713130  -90.0892182219419340  105.0000000000000000
-299.5869580708442186  -90.0294306113607377  106.0000000000000000
-298.0018742534677472  -90.9445791800111891  106.0000000000000000
-297.4871031836018460  -90.0529695327368955  106.0000000000000000
-299.0721870009783743  -89.1378209640864583  106.0000000000000000
-242.4033956932402134 -196.1545150038265604  105.0000000000000000
-243.4607358697131474 -196.0947273932453641  106.0000000000000000
-241.8756520523366476 -197.0098759618958013  106.0000000000000000
-241.3608809824707748 -196.1182663146215361  106.0000000000000000
-242.9459647998472747 -195.2031177459710989  106.0000000000000000
  42.9623701984882942 -308.8530957379705910  120.0000000000000000
  41.9050300220153744 -308.7933081273894231  121.0000000000000000
  43.4901138393918743 -309.7084566960398320  121.0000000000000000
  44.0048849092577470 -308.8168470487655668  121.0000000000000000
  42.4198010918812471 -307.9016984801151011  121.0000000000000000
 156.4157887890223151 -269.7593390737528694  120.0000000000000000
 155.3584486125493811 -269.6995514631717015  121.0000000000000000
 156.9435324299258809 -270.6147000318221103  121.0000000000000000
 157.4583034997917537 -269.7230903845478451  121.0000000000000000
 155.8732196824152538 -268.8079418158973795  121.0000000000000000
311.7836336818191967  -5.1928574177595976 135.0000000000000000
310.7262935053462911  -5.1330698071784040 136.0000000000000000
312.3113773227227625  -6.0482183758288457 136.0000000000000000
312.8261483925886637  -5.1566087285545645 136.0000000000000000
311.2410645752121354  -4.2414601599041228 136.0000000000000000
290.6581201052738379 112.9329766581409871 135.0000000000000000
289.6007799288009323 112.9927642687221834 136.0000000000000000
291.1858637461774038 112.0776157000717319 136.0000000000000000
291.7006348160433049 112.9692253473460255 136.0000000000000000
290.1155509986667766 113.8843739159964628 136.0000000000000000
 53.2237848947916774 307.2510841664727650 150.0000000000000000
 52.1664447183187576 307.3108717770539329 151.0000000000000000
 53.7515285356952575 306.3957232084035240 151.0000000000000000
 54.2662996055611302 307.2873328556777892 151.0000000000000000
 52.6812157881846304 308.2024814243282549 151.0000000000000000
-66.7469158933462552 304.5994898530307182 150.0000000000000000
-67.8042560698191750 304.6592774636118861 151.0000000000000000
-66.2191722524426751 303.7441288949614773 151.0000000000000000
-65.7044011825768024 304.6357385422357424 151.0000000000000000
-67.2894849999533022 305.5508871108862081 151.0000000000000000
-295.3639417047662050   99.9807078421806921  165.0000000000000000
-296.4212818812391106  100.0404954527618884  166.0000000000000000
-294.8361980638626392   99.1253468841114369  166.0000000000000000
-294.3214269939967380  100.0169565313857305  166.0000000000000000
-295.9065108113732663  100.9321051000361678  166.0000000000000000
-311.2497372094204025  -18.9631507684441161  165.0000000000000000
-312.3070773858933080  -18.9033631578629233  166.0000000000000000
-310.7219935685168366  -19.8185117265133641  166.0000000000000000
-310.2072224986509354  -18.9269020792390847  166.0000000000000000
-311.7923063160274637  -18.0117535105886404  166.0000000000000000
-144.3444173997357609 -276.4067458755861253  180.0000000000000000
-145.4017575762086949 -276.3469582650049574  181.0000000000000000
-143.8166737588321951 -277.2621068336553662  181.0000000000000000
-143.3019026889663223 -276.3704971863811011  181.0000000000000000
-144.8869865063428222 -275.4553486177306354  181.0000000000000000
 -29.2745305900189763 -310.4496768539694358  180.0000000000000000
 -30.3318707664918996 -310.3898892433882679  181.0000000000000000
 -28.7467869491153998 -311.3050378120386767  181.0000000000000000
 -28.2320158792495235 -310.4134281647644116  181.0000000000000000
 -29.8170996966260269 -309.4982795961139459  181.0000000000000000
 250.8332703705904692 -185.2529904622170136  195.0000000000000000
 249.7759301941175352 -185.1932028516358173  196.0000000000000000
 251.3610140114940350 -186.1083514202862546  196.0000000000000000
 251.8757850813599077 -185.2167417730119894  196.0000000000000000
 250.2907012639834079 -184.3015932043615521  196.0000000000000000
302.2184596328426665 -76.8114747752693177 195.0000000000000000
301.1611194563697609 -76.7516871646881214 196.0000000000000000
302.7462032737462323 -77.6668357333385728 196.0000000000000000
303.2609743436121335 -76.7752260860642792 196.0000000000000000
301.6758905262356052 -75.8600775174138420 196.0000000000000000
221.7272086691517075 219.2556611259706472 210.0000000000000000
220.6698684926787735 219.3154487365518435 211.0000000000000000
222.2549523100552733 218.4003001679014062 211.0000000000000000
222.7697233799211460 219.2919098151756714 211.0000000000000000
221.1846395625446462 220.2070583838261086 211.0000000000000000
122.5098017523355480 286.7531141497916565 210.0000000000000000
121.4524615758626283 286.8129017603728244 211.0000000000000000
123.0375453932391281 285.8977531917224155 211.0000000000000000
123.5523164631050008 286.7893628389966807 211.0000000000000000
121.9672326457285010 287.7045114076471464 211.0000000000000000
-182.4297835371033898  252.8939977117005924  225.0000000000000000
-183.4871237135763238  252.9537853222817887  226.0000000000000000
-181.9020398961998239  252.0386367536313514  226.0000000000000000
-181.3872688263339512  252.9302464009056166  226.0000000000000000
-182.9723526437104510  253.8453949695560539  226.0000000000000000
-264.4238305413662147  165.2756420100398600  225.0000000000000000
-265.4811707178391202  165.3354296206210563  226.0000000000000000
-263.8960869004626488  164.4202810519706190  226.0000000000000000
-263.3813158305967477  165.3118906992448842  226.0000000000000000
-264.9663996479732759  166.2270392678953215  226.0000000000000000
-278.0073258957042981 -141.2371294961762942  240.0000000000000000
-279.0646660721772037 -141.1773418855950979  241.0000000000000000
-277.4795822548007322 -142.0924904542455351  241.0000000000000000
-276.9648111849348311 -141.2008808069712700  241.0000000000000000
-278.5498950023113593 -140.2857322383208327  241.0000000000000000
-204.0853202440046630 -235.7650993274917823  240.0000000000000000
-205.1426604204775970 -235.7053117169105860  241.0000000000000000
-203.5575766031010971 -236.6204602855610233  241.0000000000000000
-203.0428055332352244 -235.7288506382867581  241.0000000000000000
-204.6278893506117242 -234.8137020696363209  241.0000000000000000
  96.6637173395384082 -296.4660617171918489  255.0000000000000000
  95.6063771630654884 -296.4062741066106810  256.0000000000000000
  97.1914609804419882 -297.3214226752610898  256.0000000000000000
  97.7062320503078610 -296.4298130279868246  256.0000000000000000
  96.1211482329313611 -295.5146644593363590  256.0000000000000000
 201.4629174445469459 -238.0098588183515744  255.0000000000000000
 200.4055772680740120 -237.9500712077703781  256.0000000000000000
 201.9906610854505118 -238.8652197764208154  256.0000000000000000
 202.5054321553163845 -237.9736101291465502  256.0000000000000000
 200.9203483379398847 -237.0584615604961130  256.0000000000000000
307.8283629979990792  49.7764897714986603 270.0000000000000000
306.7710228215261736  49.8362773820798566 271.0000000000000000
308.3561066389026450  48.9211288134294122 271.0000000000000000
308.8708777087685462  49.8127384607036916 271.0000000000000000
307.2857938913920179  50.7278870293541360 271.0000000000000000
266.2372144728126386 162.3383677069519422 270.0000000000000000
265.1798742963397331 162.3981553175331385 271.0000000000000000
266.7649581137162045 161.4830067488827012 271.0000000000000000
267.2797291835821056 162.3746163961569664 271.0000000000000000
265.6946453662055774 163.2897649648074037 271.0000000000000000
 -1.6977747216126389 311.8222531523281873 285.0000000000000000
 -2.7551148980855613 311.8820407629093552 286.0000000000000000
 -1.1700310807090615 310.9668921942589463 286.0000000000000000
 -0.6552600108431879 311.8585018415332115 286.0000000000000000
 -2.2403438282196877 312.7736504101836772 286.0000000000000000
-119.3279647516208684  288.0917160007138023  285.0000000000000000
-120.3853049280937881  288.1515036112949701  286.0000000000000000
-118.8002211107172883  287.2363550426445613  286.0000000000000000
-118.2854500408514156  288.1279646899188265  286.0000000000000000
-119.8705338582279154  289.0431132585692922  286.0000000000000000
3 0 1 2
3 0 2 3
3 0 3 4
3 0 4 1
4 1 2 3 4
3 5 6 7
3 5 7 8
3 5 8 9
3 5 9 6
4 6 7 8 9
3 10 11 12
3 10 12 13
3 10 13 14
3 10 14 11
4 11 12 13 14
3 15 16 17
3 15 17 18
3 15 18 19
3 15 19 16
4 16 17 18 19
3 20 21 22
3 20 22 23
3 20 23 24
3 20 24 21
4 21 22 23 24
3 25 26 27
3 25 27 28
3 25 28 29
3 25 29 26
4 26 27 28 29
3 30 31 32
3 30 32 33
3 30 33 34
3 30 34 31
4 31 32 33 34
3 35 36 37
3 35 37 38
3 35 38 39
3 35 39 36
4 36 37 38 39
3 40 41 42
3 40 42 43
3 40 43 44
3 40 44 41
4 41 42 43 44
3 45 46 47
3 45 47 48
3 45 48 49
3 45 49 46
4 46 47 48 49
3 50 51 52
3 50 52 53
3 50 53 54
3 50 54 51
4 51 52 53 54
3 55 56 57
3 55 57 58
3 55 58 59
3 55 59 56
4 56 57 58 59
3 60 61 62
3 60 62 63
3 60 63 64
3 60 64 61
4 61 62 63 64
3 65 66 67
3 65 67 68
3 65 68 69
3 65 69 66
4 66 67 68 69
3 70 71 72
3 70 72 73
3 70 73 74
3 70 74 71
4 71 72 73 74
3 75 76 77
3 75 77 78
3 75 78 79
3 75 79 76
4 76 77 78 79
3 80 81 82
3 80 82 83
3 80 83 84
3 80 84 81
4 81 82 83 84
3 85 86 87
3 85 87 88
3 85 88 89
3 85 89 86
4 86 87 88 89
3 90 91 92
3 90 92 93
3 90 93 94
3 90 94 91
4 91 92 93 94
3 95 96 97
3 95 97 98
3 95 98 99
3 95 99 96
4 96 97 98 99
3 100 101 102
3 100 102 103
3 100 103 104
3 100 104 101
4 101 102 103 104
3 105 106 107
3 105 107 108
3 105 108 109
3 105 109 106
4 106 107 108 109
3 110 111 112
3 110 112 113
3 110 113 114
3 110 114 111
4 111 112 113 114
3 115 116 117
3 115 117 118
3 115 118 119
3 115 119 116
4 116 117 118 119
3 120 121 122
3 120 122 123
3 120 123 124
3 120 124 121
4 121 122 123 124
3 125 126 127
3 125 127 128
3 125 128 129
3 125 129 126
4 126 127 128 129
3 130 131 132
3 130 132 133
3 130 133 134
3 130 134 131
4 131 132 133 134
3 135 136 137
3 135 137 138
3 135 138 139
3 135 139 136
4 136 137 138 139
3 140 141 142
3 140 142 143
3 140 143 144
3 140 144 141
4 141 142 143 144
3 145 146 147
3 145 147 148
3 145 148 149
3 145 149 146
4 146 147 148 149
3 150 151 152
3 150 152 153
3 150 153 154
3 150 154 151
4 151 152 153 154
3 155 156 157
3 155 157 158
3 155 158 159
3 155 159 156
4 156 157 158 159
3 160 161 162
3 160 162 163
3 160 163 164
3 160 164 161
4 161 162 163 164
3 165 166 167
3 165 167 168
3 165 168 169
3 165 169 166
4 166 167 168 169
3 170 171 172
3 170 172 173
3 170 173 174
3 170 174 171
4 171 172 173 174
3 175 176 177
3 175 177 178
3 175 178 179
3 175 179 176
4 176 177 178 179
3 180 181 182
3 180 182 183
3 180 183 184
3 180 184 181
4 181 182 183 184
3 185 186 187
3 185 187 188
3 185 188 189
3 185 189 186
4 186 187 188 189
3 190 191 192
3 190 192 193
3 190 193 194
3 190 194 191
4 191 192 193 194
3 195 196 197
3 195 197 198
3 195 198 199
3 195 199 196
4 196 197 198 199
