<?xml version="1.0" standalone="yes"?>
<!-- SVG graphic -->
<svg xmlns='http://www.w3.org/2000/svg' xmlns:xlink='http://www.w3.org/1999/xlink'
 version="1.1">
<rect x="0" y="0" width="6" height="200" stroke="black" stroke-width="1" fill="blue" tooltip="enable"><title>(0,16)</title></rect><rect x="6" y="100" width="6" height="100" stroke="black" stroke-width="1" fill="blue" tooltip="enable"><title>(0.0370449,8)</title></rect><rect x="12" y="12.5" width="6" height="187.5" stroke="black" stroke-width="1" fill="blue" tooltip="enable"><title>(0.0740898,15)</title></rect><rect x="18" y="150" width="6" height="50" stroke="black" stroke-width="1" fill="blue" tooltip="enable"><title>(0.111135,4)</title></rect><rect x="24" y="150" width="6" height="50" stroke="black" stroke-width="1" fill="blue" tooltip="enable"><title>(0.14818,4)</title></rect><rect x="30" y="100" width="6" height="100" stroke="black" stroke-width="1" fill="blue" tooltip="enable"><title>(0.185225,8)</title></rect><rect x="36" y="100" width="6" height="100" stroke="black" stroke-width="1" fill="blue" tooltip="enable"><title>(0.222269,8)</title></rect><rect x="42" y="100" width="6" height="100" stroke="black" stroke-width="1" fill="blue" tooltip="enable"><title>(0.259314,8)</title></rect><rect x="48" y="150" width="6" height="50" stroke="black" stroke-width="1" fill="blue" tooltip="enable"><title>(0.296359,4)</title></rect><rect x="54" y="162.5" width="6" height="37.5" stroke="black" stroke-width="1" fill="blue" tooltip="enable"><title>(0.333404,3)</title></rect><rect x="60" y="150" width="6" height="50" stroke="black" stroke-width="1" fill="blue" tooltip="enable"><title>(0.370449,4)</title></rect><rect x="66" y="187.5" width="6" height="12.5" stroke="black" stroke-width="1" fill="blue" tooltip="enable"><title>(0.407494,1)</title></rect><rect x="72" y="150" width="6" height="50" stroke="black" stroke-width="1" fill="blue" tooltip="enable"><title>(0.444539,4)</title></rect><rect x="78" y="200" width="6" height="0" stroke="black" stroke-width="1" fill="blue" tooltip="enable"><title>(0.481584,0)</title></rect><rect x="84" y="200" width="6" height="0" stroke="black" stroke-width="1" fill="blue" tooltip="enable"><title>(0.518629,0)</title></rect><rect x="90" y="150" width="6" height="50" stroke="black" stroke-width="1" fill="blue" tooltip="enable"><title>(0.555674,4)</title></rect><rect x="96" y="175" width="6" height="25" stroke="black" stroke-width="1" fill="blue" tooltip="enable"><title>(0.592718,2)</title></rect><rect x="102" y="200" width="6" height="0" stroke="black" stroke-width="1" fill="blue" tooltip="enable"><title>(0.629763,0)</title></rect><rect x="108" y="162.5" width="6" height="37.5" stroke="black" stroke-width="1" fill="blue" tooltip="enable"><title>(0.666808,3)</title></rect><rect x="114" y="175" width="6" height="25" stroke="black" stroke-width="1" fill="blue" tooltip="enable"><title>(0.703853,2)</title></rect><rect x="120" y="175" width="6" height="25" stroke="black" stroke-width="1" fill="blue" tooltip="enable"><title>(0.740898,2)</title></rect><rect x="126" y="150" width="6" height="50" stroke="black" stroke-width="1" fill="blue" tooltip="enable"><title>(0.777943,4)</title></rect><rect x="132" y="175" width="6" height="25" stroke="black" stroke-width="1" fill="blue" tooltip="enable"><title>(0.814988,2)</title></rect><rect x="138" y="162.5" width="6" height="37.5" stroke="black" stroke-width="1" fill="blue" tooltip="enable"><title>(0.852033,3)</title></rect><rect x="144" y="175" width="6" height="25" stroke="black" stroke-width="1" fill="blue" tooltip="enable"><title>(0.889078,2)</title></rect><rect x="150" y="187.5" width="6" height="12.5" stroke="black" stroke-width="1" fill="blue" tooltip="enable"><title>(0.926122,1)</title></rect><rect x="156" y="200" width="6" height="0" stroke="black" stroke-width="1" fill="blue" tooltip="enable"><title>(0.963167,0)</title></rect><rect x="162" y="200" width="6" height="0" stroke="black" stroke-width="1" fill="blue" tooltip="enable"><title>(1.00021,0)</title></rect><rect x="168" y="150" width="6" height="50" stroke="black" stroke-width="1" fill="blue" tooltip="enable"><title>(1.03726,4)</title></rect><rect x="174" y="187.5" width="6" height="12.5" stroke="black" stroke-width="1" fill="blue" tooltip="enable"><title>(1.0743,1)</title></rect><rect x="180" y="187.5" width="6" height="12.5" stroke="black" stroke-width="1" fill="blue" tooltip="enable"><title>(1.11135,1)</title></rect><rect x="186" y="150" width="6" height="50" stroke="black" stroke-width="1" fill="blue" tooltip="enable"><title>(1.14839,4)</title></rect><rect x="192" y="187.5" width="6" height="12.5" stroke="black" stroke-width="1" fill="blue" tooltip="enable"><title>(1.18544,1)</title></rect><rect x="198" y="200" width="6" height="0" stroke="black" stroke-width="1" fill="blue" tooltip="enable"><title>(1.22248,0)</title></rect><rect x="204" y="187.5" width="6" height="12.5" stroke="black" stroke-width="1" fill="blue" tooltip="enable"><title>(1.25953,1)</title></rect><rect x="210" y="175" width="6" height="25" stroke="black" stroke-width="1" fill="blue" tooltip="enable"><title>(1.29657,2)</title></rect><rect x="216" y="187.5" width="6" height="12.5" stroke="black" stroke-width="1" fill="blue" tooltip="enable"><title>(1.33362,1)</title></rect><rect x="222" y="175" width="6" height="25" stroke="black" stroke-width="1" fill="blue" tooltip="enable"><title>(1.37066,2)</title></rect><rect x="228" y="187.5" width="6" height="12.5" stroke="black" stroke-width="1" fill="blue" tooltip="enable"><title>(1.40771,1)</title></rect><rect x="234" y="200" width="6" height="0" stroke="black" stroke-width="1" fill="blue" tooltip="enable"><title>(1.44475,0)</title></rect><rect x="240" y="175" width="6" height="25" stroke="black" stroke-width="1" fill="blue" tooltip="enable"><title>(1.4818,2)</title></rect><rect x="246" y="187.5" width="6" height="12.5" stroke="black" stroke-width="1" fill="blue" tooltip="enable"><title>(1.51884,1)</title></rect><rect x="252" y="175" width="6" height="25" stroke="black" stroke-width="1" fill="blue" tooltip="enable"><title>(1.55589,2)</title></rect><rect x="258" y="200" width="6" height="0" stroke="black" stroke-width="1" fill="blue" tooltip="enable"><title>(1.59293,0)</title></rect><rect x="264" y="187.5" width="6" height="12.5" stroke="black" stroke-width="1" fill="blue" tooltip="enable"><title>(1.62998,1)</title></rect><rect x="270" y="162.5" width="6" height="37.5" stroke="black" stroke-width="1" fill="blue" tooltip="enable"><title>(1.66702,3)</title></rect><rect x="276" y="200" width="6" height="0" stroke="black" stroke-width="1" fill="blue" tooltip="enable"><title>(1.70407,0)</title></rect><rect x="282" y="200" width="6" height="0" stroke="black" stroke-width="1" fill="blue" tooltip="enable"><title>(1.74111,0)</title></rect><rect x="288" y="200" width="6" height="0" stroke="black" stroke-width="1" fill="blue" tooltip="enable"><title>(1.77816,0)</title></rect><rect x="294" y="187.5" width="6" height="12.5" stroke="black" stroke-width="1" fill="blue" tooltip="enable"><title>(1.8152,1)</title></rect><rect x="300" y="187.5" width="6" height="12.5" stroke="black" stroke-width="1" fill="blue" tooltip="enable"><title>(1.85224,1)</title></rect><rect x="306" y="187.5" width="6" height="12.5" stroke="black" stroke-width="1" fill="blue" tooltip="enable"><title>(1.88929,1)</title></rect><rect x="312" y="187.5" width="6" height="12.5" stroke="black" stroke-width="1" fill="blue" tooltip="enable"><title>(1.92633,1)</title></rect><rect x="318" y="175" width="6" height="25" stroke="black" stroke-width="1" fill="blue" tooltip="enable"><title>(1.96338,2)</title></rect><rect x="324" y="200" width="6" height="0" stroke="black" stroke-width="1" fill="blue" tooltip="enable"><title>(2.00042,0)</title></rect><rect x="330" y="187.5" width="6" height="12.5" stroke="black" stroke-width="1" fill="blue" tooltip="enable"><title>(2.03747,1)</title></rect><rect x="336" y="162.5" width="6" height="37.5" stroke="black" stroke-width="1" fill="blue" tooltip="enable"><title>(2.07451,3)</title></rect><rect x="342" y="200" width="6" height="0" stroke="black" stroke-width="1" fill="blue" tooltip="enable"><title>(2.11156,0)</title></rect><rect x="348" y="200" width="6" height="0" stroke="black" stroke-width="1" fill="blue" tooltip="enable"><title>(2.1486,0)</title></rect><rect x="354" y="187.5" width="6" height="12.5" stroke="black" stroke-width="1" fill="blue" tooltip="enable"><title>(2.18565,1)</title></rect><rect x="360" y="200" width="6" height="0" stroke="black" stroke-width="1" fill="blue" tooltip="enable"><title>(2.22269,0)</title></rect><rect x="366" y="175" width="6" height="25" stroke="black" stroke-width="1" fill="blue" tooltip="enable"><title>(2.25974,2)</title></rect><rect x="372" y="200" width="6" height="0" stroke="black" stroke-width="1" fill="blue" tooltip="enable"><title>(2.29678,0)</title></rect><rect x="378" y="187.5" width="6" height="12.5" stroke="black" stroke-width="1" fill="blue" tooltip="enable"><title>(2.33383,1)</title></rect><rect x="384" y="187.5" width="6" height="12.5" stroke="black" stroke-width="1" fill="blue" tooltip="enable"><title>(2.37087,1)</title></rect><rect x="390" y="175" width="6" height="25" stroke="black" stroke-width="1" fill="blue" tooltip="enable"><title>(2.40792,2)</title></rect><rect x="396" y="187.5" width="6" height="12.5" stroke="black" stroke-width="1" fill="blue" tooltip="enable"><title>(2.44496,1)</title></rect><rect x="402" y="162.5" width="6" height="37.5" stroke="black" stroke-width="1" fill="blue" tooltip="enable"><title>(2.48201,3)</title></rect><rect x="408" y="200" width="6" height="0" stroke="black" stroke-width="1" fill="blue" tooltip="enable"><title>(2.51905,0)</title></rect><rect x="414" y="187.5" width="6" height="12.5" stroke="black" stroke-width="1" fill="blue" tooltip="enable"><title>(2.5561,1)</title></rect><rect x="420" y="175" width="6" height="25" stroke="black" stroke-width="1" fill="blue" tooltip="enable"><title>(2.59314,2)</title></rect><rect x="426" y="187.5" width="6" height="12.5" stroke="black" stroke-width="1" fill="blue" tooltip="enable"><title>(2.63019,1)</title></rect><rect x="432" y="175" width="6" height="25" stroke="black" stroke-width="1" fill="blue" tooltip="enable"><title>(2.66723,2)</title></rect><rect x="438" y="187.5" width="6" height="12.5" stroke="black" stroke-width="1" fill="blue" tooltip="enable"><title>(2.70428,1)</title></rect><rect x="444" y="175" width="6" height="25" stroke="black" stroke-width="1" fill="blue" tooltip="enable"><title>(2.74132,2)</title></rect><rect x="450" y="187.5" width="6" height="12.5" stroke="black" stroke-width="1" fill="blue" tooltip="enable"><title>(2.77837,1)</title></rect><rect x="456" y="175" width="6" height="25" stroke="black" stroke-width="1" fill="blue" tooltip="enable"><title>(2.81541,2)</title></rect><rect x="462" y="175" width="6" height="25" stroke="black" stroke-width="1" fill="blue" tooltip="enable"><title>(2.85246,2)</title></rect><rect x="468" y="200" width="6" height="0" stroke="black" stroke-width="1" fill="blue" tooltip="enable"><title>(2.8895,0)</title></rect><rect x="474" y="200" width="6" height="0" stroke="black" stroke-width="1" fill="blue" tooltip="enable"><title>(2.92655,0)</title></rect><rect x="480" y="200" width="6" height="0" stroke="black" stroke-width="1" fill="blue" tooltip="enable"><title>(2.96359,0)</title></rect><rect x="486" y="187.5" width="6" height="12.5" stroke="black" stroke-width="1" fill="blue" tooltip="enable"><title>(3.00064,1)</title></rect><rect x="492" y="175" width="6" height="25" stroke="black" stroke-width="1" fill="blue" tooltip="enable"><title>(3.03768,2)</title></rect><rect x="498" y="200" width="6" height="0" stroke="black" stroke-width="1" fill="blue" tooltip="enable"><title>(3.07473,0)</title></rect><rect x="504" y="200" width="6" height="0" stroke="black" stroke-width="1" fill="blue" tooltip="enable"><title>(3.11177,0)</title></rect><rect x="510" y="200" width="6" height="0" stroke="black" stroke-width="1" fill="blue" tooltip="enable"><title>(3.14882,0)</title></rect><rect x="516" y="187.5" width="6" height="12.5" stroke="black" stroke-width="1" fill="blue" tooltip="enable"><title>(3.18586,1)</title></rect><rect x="522" y="200" width="6" height="0" stroke="black" stroke-width="1" fill="blue" tooltip="enable"><title>(3.22291,0)</title></rect><rect x="528" y="187.5" width="6" height="12.5" stroke="black" stroke-width="1" fill="blue" tooltip="enable"><title>(3.25995,1)</title></rect><rect x="534" y="200" width="6" height="0" stroke="black" stroke-width="1" fill="blue" tooltip="enable"><title>(3.297,0)</title></rect><rect x="540" y="200" width="6" height="0" stroke="black" stroke-width="1" fill="blue" tooltip="enable"><title>(3.33404,0)</title></rect><rect x="546" y="187.5" width="6" height="12.5" stroke="black" stroke-width="1" fill="blue" tooltip="enable"><title>(3.37109,1)</title></rect><rect x="552" y="200" width="6" height="0" stroke="black" stroke-width="1" fill="blue" tooltip="enable"><title>(3.40813,0)</title></rect><rect x="558" y="187.5" width="6" height="12.5" stroke="black" stroke-width="1" fill="blue" tooltip="enable"><title>(3.44518,1)</title></rect><rect x="564" y="187.5" width="6" height="12.5" stroke="black" stroke-width="1" fill="blue" tooltip="enable"><title>(3.48222,1)</title></rect><rect x="570" y="200" width="6" height="0" stroke="black" stroke-width="1" fill="blue" tooltip="enable"><title>(3.51927,0)</title></rect><rect x="576" y="187.5" width="6" height="12.5" stroke="black" stroke-width="1" fill="blue" tooltip="enable"><title>(3.55631,1)</title></rect><rect x="582" y="187.5" width="6" height="12.5" stroke="black" stroke-width="1" fill="blue" tooltip="enable"><title>(3.59336,1)</title></rect><rect x="588" y="187.5" width="6" height="12.5" stroke="black" stroke-width="1" fill="blue" tooltip="enable"><title>(3.6304,1)</title></rect><rect x="594" y="175" width="6" height="25" stroke="black" stroke-width="1" fill="blue" tooltip="enable"><title>(3.66745,2)</title></rect><text x="30" y="240" font-size="20" fill="black">0</text>
<text x="600" y="240" font-size="20" fill="black">3.70449</text>
<polyline points="0,220,600,220" stroke="black" stroke-width="1" fill="none"/>
<text x="720" y="20" font-size="20" fill="black">16</text>
<text x="720" y="200" font-size="20" fill="black">0</text>
<polyline points="660,0,660,200" stroke="black" stroke-width="1" fill="none"/>
</svg>