<?xml version="1.0" standalone="yes"?>
<!-- SVG graphic -->
<svg xmlns='http://www.w3.org/2000/svg' xmlns:xlink='http://www.w3.org/1999/xlink'
 version="1.1">
<rect x="0" y="0" width="6" height="200" stroke="black" stroke-width="1" fill="blue" tooltip="enable"><title>(0,4886)</title></rect><rect x="6" y="15.6365" width="6" height="184.363" stroke="black" stroke-width="1" fill="blue" tooltip="enable"><title>(0.0398225,4504)</title></rect><rect x="12" y="35.0798" width="6" height="164.92" stroke="black" stroke-width="1" fill="blue" tooltip="enable"><title>(0.079645,4029)</title></rect><rect x="18" y="53.9091" width="6" height="146.091" stroke="black" stroke-width="1" fill="blue" tooltip="enable"><title>(0.119467,3569)</title></rect><rect x="24" y="67.499" width="6" height="132.501" stroke="black" stroke-width="1" fill="blue" tooltip="enable"><title>(0.15929,3237)</title></rect><rect x="30" y="86.9423" width="6" height="113.058" stroke="black" stroke-width="1" fill="blue" tooltip="enable"><title>(0.199112,2762)</title></rect><rect x="36" y="100.205" width="6" height="99.7953" stroke="black" stroke-width="1" fill="blue" tooltip="enable"><title>(0.238935,2438)</title></rect><rect x="42" y="110.192" width="6" height="89.8076" stroke="black" stroke-width="1" fill="blue" tooltip="enable"><title>(0.278757,2194)</title></rect><rect x="48" y="121.531" width="6" height="78.4691" stroke="black" stroke-width="1" fill="blue" tooltip="enable"><title>(0.31858,1917)</title></rect><rect x="54" y="137.7" width="6" height="62.3004" stroke="black" stroke-width="1" fill="blue" tooltip="enable"><title>(0.358402,1522)</title></rect><rect x="60" y="139.623" width="6" height="60.3766" stroke="black" stroke-width="1" fill="blue" tooltip="enable"><title>(0.398225,1475)</title></rect><rect x="66" y="148.752" width="6" height="51.2485" stroke="black" stroke-width="1" fill="blue" tooltip="enable"><title>(0.438047,1252)</title></rect><rect x="72" y="154.4" width="6" height="45.5997" stroke="black" stroke-width="1" fill="blue" tooltip="enable"><title>(0.47787,1114)</title></rect><rect x="78" y="159.067" width="6" height="40.9333" stroke="black" stroke-width="1" fill="blue" tooltip="enable"><title>(0.517692,1000)</title></rect><rect x="84" y="162.71" width="6" height="37.2902" stroke="black" stroke-width="1" fill="blue" tooltip="enable"><title>(0.557515,911)</title></rect><rect x="90" y="168.359" width="6" height="31.6414" stroke="black" stroke-width="1" fill="blue" tooltip="enable"><title>(0.597337,773)</title></rect><rect x="96" y="171.224" width="6" height="28.7761" stroke="black" stroke-width="1" fill="blue" tooltip="enable"><title>(0.63716,703)</title></rect><rect x="102" y="175.072" width="6" height="24.9284" stroke="black" stroke-width="1" fill="blue" tooltip="enable"><title>(0.676982,609)</title></rect><rect x="108" y="175.031" width="6" height="24.9693" stroke="black" stroke-width="1" fill="blue" tooltip="enable"><title>(0.716805,610)</title></rect><rect x="114" y="180.27" width="6" height="19.7298" stroke="black" stroke-width="1" fill="blue" tooltip="enable"><title>(0.756627,482)</title></rect><rect x="120" y="180.557" width="6" height="19.4433" stroke="black" stroke-width="1" fill="blue" tooltip="enable"><title>(0.79645,475)</title></rect><rect x="126" y="182.071" width="6" height="17.9288" stroke="black" stroke-width="1" fill="blue" tooltip="enable"><title>(0.836272,438)</title></rect><rect x="132" y="184.691" width="6" height="15.309" stroke="black" stroke-width="1" fill="blue" tooltip="enable"><title>(0.876095,374)</title></rect><rect x="138" y="185.059" width="6" height="14.9406" stroke="black" stroke-width="1" fill="blue" tooltip="enable"><title>(0.915917,365)</title></rect><rect x="144" y="185.551" width="6" height="14.4494" stroke="black" stroke-width="1" fill="blue" tooltip="enable"><title>(0.95574,353)</title></rect><rect x="150" y="186.124" width="6" height="13.8764" stroke="black" stroke-width="1" fill="blue" tooltip="enable"><title>(0.995562,339)</title></rect><rect x="156" y="188.661" width="6" height="11.3385" stroke="black" stroke-width="1" fill="blue" tooltip="enable"><title>(1.03538,277)</title></rect><rect x="162" y="189.112" width="6" height="10.8883" stroke="black" stroke-width="1" fill="blue" tooltip="enable"><title>(1.07521,266)</title></rect><rect x="168" y="190.299" width="6" height="9.70119" stroke="black" stroke-width="1" fill="blue" tooltip="enable"><title>(1.11503,237)</title></rect><rect x="174" y="189.93" width="6" height="10.0696" stroke="black" stroke-width="1" fill="blue" tooltip="enable"><title>(1.15485,246)</title></rect><rect x="180" y="191.731" width="6" height="8.26852" stroke="black" stroke-width="1" fill="blue" tooltip="enable"><title>(1.19467,202)</title></rect><rect x="186" y="191.036" width="6" height="8.96439" stroke="black" stroke-width="1" fill="blue" tooltip="enable"><title>(1.2345,219)</title></rect><rect x="192" y="192.059" width="6" height="7.94106" stroke="black" stroke-width="1" fill="blue" tooltip="enable"><title>(1.27432,194)</title></rect><rect x="198" y="192.264" width="6" height="7.73639" stroke="black" stroke-width="1" fill="blue" tooltip="enable"><title>(1.31414,189)</title></rect><rect x="204" y="194.31" width="6" height="5.68973" stroke="black" stroke-width="1" fill="blue" tooltip="enable"><title>(1.35396,139)</title></rect><rect x="210" y="193.778" width="6" height="6.22186" stroke="black" stroke-width="1" fill="blue" tooltip="enable"><title>(1.39379,152)</title></rect><rect x="216" y="194.065" width="6" height="5.93533" stroke="black" stroke-width="1" fill="blue" tooltip="enable"><title>(1.43361,145)</title></rect><rect x="222" y="194.187" width="6" height="5.81253" stroke="black" stroke-width="1" fill="blue" tooltip="enable"><title>(1.47343,142)</title></rect><rect x="228" y="195.006" width="6" height="4.99386" stroke="black" stroke-width="1" fill="blue" tooltip="enable"><title>(1.51325,122)</title></rect><rect x="234" y="195.006" width="6" height="4.99386" stroke="black" stroke-width="1" fill="blue" tooltip="enable"><title>(1.55308,122)</title></rect><rect x="240" y="195.129" width="6" height="4.87106" stroke="black" stroke-width="1" fill="blue" tooltip="enable"><title>(1.5929,119)</title></rect><rect x="246" y="195.907" width="6" height="4.09333" stroke="black" stroke-width="1" fill="blue" tooltip="enable"><title>(1.63272,100)</title></rect><rect x="252" y="195.497" width="6" height="4.50266" stroke="black" stroke-width="1" fill="blue" tooltip="enable"><title>(1.67254,110)</title></rect><rect x="258" y="196.684" width="6" height="3.3156" stroke="black" stroke-width="1" fill="blue" tooltip="enable"><title>(1.71237,81)</title></rect><rect x="264" y="196.93" width="6" height="3.07" stroke="black" stroke-width="1" fill="blue" tooltip="enable"><title>(1.75219,75)</title></rect><rect x="270" y="197.012" width="6" height="2.98813" stroke="black" stroke-width="1" fill="blue" tooltip="enable"><title>(1.79201,73)</title></rect><rect x="276" y="196.848" width="6" height="3.15186" stroke="black" stroke-width="1" fill="blue" tooltip="enable"><title>(1.83183,77)</title></rect><rect x="282" y="196.439" width="6" height="3.5612" stroke="black" stroke-width="1" fill="blue" tooltip="enable"><title>(1.87166,87)</title></rect><rect x="288" y="197.012" width="6" height="2.98813" stroke="black" stroke-width="1" fill="blue" tooltip="enable"><title>(1.91148,73)</title></rect><rect x="294" y="197.38" width="6" height="2.61973" stroke="black" stroke-width="1" fill="blue" tooltip="enable"><title>(1.9513,64)</title></rect><rect x="300" y="197.626" width="6" height="2.37413" stroke="black" stroke-width="1" fill="blue" tooltip="enable"><title>(1.99112,58)</title></rect><rect x="306" y="197.135" width="6" height="2.86533" stroke="black" stroke-width="1" fill="blue" tooltip="enable"><title>(2.03095,70)</title></rect><rect x="312" y="197.79" width="6" height="2.2104" stroke="black" stroke-width="1" fill="blue" tooltip="enable"><title>(2.07077,54)</title></rect><rect x="318" y="197.626" width="6" height="2.37413" stroke="black" stroke-width="1" fill="blue" tooltip="enable"><title>(2.11059,58)</title></rect><rect x="324" y="197.953" width="6" height="2.04666" stroke="black" stroke-width="1" fill="blue" tooltip="enable"><title>(2.15041,50)</title></rect><rect x="330" y="198.363" width="6" height="1.63733" stroke="black" stroke-width="1" fill="blue" tooltip="enable"><title>(2.19024,40)</title></rect><rect x="336" y="198.567" width="6" height="1.43266" stroke="black" stroke-width="1" fill="blue" tooltip="enable"><title>(2.23006,35)</title></rect><rect x="342" y="197.708" width="6" height="2.29226" stroke="black" stroke-width="1" fill="blue" tooltip="enable"><title>(2.26988,56)</title></rect><rect x="348" y="198.445" width="6" height="1.55546" stroke="black" stroke-width="1" fill="blue" tooltip="enable"><title>(2.3097,38)</title></rect><rect x="354" y="198.076" width="6" height="1.92386" stroke="black" stroke-width="1" fill="blue" tooltip="enable"><title>(2.34953,47)</title></rect><rect x="360" y="197.994" width="6" height="2.00573" stroke="black" stroke-width="1" fill="blue" tooltip="enable"><title>(2.38935,49)</title></rect><rect x="366" y="198.485" width="6" height="1.51453" stroke="black" stroke-width="1" fill="blue" tooltip="enable"><title>(2.42917,37)</title></rect><rect x="372" y="199.222" width="6" height="0.777732" stroke="black" stroke-width="1" fill="blue" tooltip="enable"><title>(2.46899,19)</title></rect><rect x="378" y="198.895" width="6" height="1.1052" stroke="black" stroke-width="1" fill="blue" tooltip="enable"><title>(2.50882,27)</title></rect><rect x="384" y="198.526" width="6" height="1.4736" stroke="black" stroke-width="1" fill="blue" tooltip="enable"><title>(2.54864,36)</title></rect><rect x="390" y="198.813" width="6" height="1.18707" stroke="black" stroke-width="1" fill="blue" tooltip="enable"><title>(2.58846,29)</title></rect><rect x="396" y="198.649" width="6" height="1.3508" stroke="black" stroke-width="1" fill="blue" tooltip="enable"><title>(2.62828,33)</title></rect><rect x="402" y="198.813" width="6" height="1.18707" stroke="black" stroke-width="1" fill="blue" tooltip="enable"><title>(2.66811,29)</title></rect><rect x="408" y="198.608" width="6" height="1.39173" stroke="black" stroke-width="1" fill="blue" tooltip="enable"><title>(2.70793,34)</title></rect><rect x="414" y="198.895" width="6" height="1.1052" stroke="black" stroke-width="1" fill="blue" tooltip="enable"><title>(2.74775,27)</title></rect><rect x="420" y="199.263" width="6" height="0.736799" stroke="black" stroke-width="1" fill="blue" tooltip="enable"><title>(2.78757,18)</title></rect><rect x="426" y="198.936" width="6" height="1.06427" stroke="black" stroke-width="1" fill="blue" tooltip="enable"><title>(2.8274,26)</title></rect><rect x="432" y="198.936" width="6" height="1.06427" stroke="black" stroke-width="1" fill="blue" tooltip="enable"><title>(2.86722,26)</title></rect><rect x="438" y="199.304" width="6" height="0.695866" stroke="black" stroke-width="1" fill="blue" tooltip="enable"><title>(2.90704,17)</title></rect><rect x="444" y="199.386" width="6" height="0.613999" stroke="black" stroke-width="1" fill="blue" tooltip="enable"><title>(2.94686,15)</title></rect><rect x="450" y="198.813" width="6" height="1.18707" stroke="black" stroke-width="1" fill="blue" tooltip="enable"><title>(2.98669,29)</title></rect><rect x="456" y="199.386" width="6" height="0.613999" stroke="black" stroke-width="1" fill="blue" tooltip="enable"><title>(3.02651,15)</title></rect><rect x="462" y="199.181" width="6" height="0.818666" stroke="black" stroke-width="1" fill="blue" tooltip="enable"><title>(3.06633,20)</title></rect><rect x="468" y="199.468" width="6" height="0.532133" stroke="black" stroke-width="1" fill="blue" tooltip="enable"><title>(3.10615,13)</title></rect><rect x="474" y="199.345" width="6" height="0.654932" stroke="black" stroke-width="1" fill="blue" tooltip="enable"><title>(3.14598,16)</title></rect><rect x="480" y="199.386" width="6" height="0.613999" stroke="black" stroke-width="1" fill="blue" tooltip="enable"><title>(3.1858,15)</title></rect><rect x="486" y="199.427" width="6" height="0.573066" stroke="black" stroke-width="1" fill="blue" tooltip="enable"><title>(3.22562,14)</title></rect><rect x="492" y="199.55" width="6" height="0.450266" stroke="black" stroke-width="1" fill="blue" tooltip="enable"><title>(3.26544,11)</title></rect><rect x="498" y="199.55" width="6" height="0.450266" stroke="black" stroke-width="1" fill="blue" tooltip="enable"><title>(3.30527,11)</title></rect><rect x="504" y="199.632" width="6" height="0.3684" stroke="black" stroke-width="1" fill="blue" tooltip="enable"><title>(3.34509,9)</title></rect><rect x="510" y="199.55" width="6" height="0.450266" stroke="black" stroke-width="1" fill="blue" tooltip="enable"><title>(3.38491,11)</title></rect><rect x="516" y="199.754" width="6" height="0.2456" stroke="black" stroke-width="1" fill="blue" tooltip="enable"><title>(3.42473,6)</title></rect><rect x="522" y="199.795" width="6" height="0.204666" stroke="black" stroke-width="1" fill="blue" tooltip="enable"><title>(3.46456,5)</title></rect><rect x="528" y="199.836" width="6" height="0.163733" stroke="black" stroke-width="1" fill="blue" tooltip="enable"><title>(3.50438,4)</title></rect><rect x="534" y="199.836" width="6" height="0.163733" stroke="black" stroke-width="1" fill="blue" tooltip="enable"><title>(3.5442,4)</title></rect><rect x="540" y="199.877" width="6" height="0.1228" stroke="black" stroke-width="1" fill="blue" tooltip="enable"><title>(3.58402,3)</title></rect><rect x="546" y="199.55" width="6" height="0.450266" stroke="black" stroke-width="1" fill="blue" tooltip="enable"><title>(3.62385,11)</title></rect><rect x="552" y="199.836" width="6" height="0.163733" stroke="black" stroke-width="1" fill="blue" tooltip="enable"><title>(3.66367,4)</title></rect><rect x="558" y="199.632" width="6" height="0.3684" stroke="black" stroke-width="1" fill="blue" tooltip="enable"><title>(3.70349,9)</title></rect><rect x="564" y="199.877" width="6" height="0.1228" stroke="black" stroke-width="1" fill="blue" tooltip="enable"><title>(3.74331,3)</title></rect><rect x="570" y="199.918" width="6" height="0.0818666" stroke="black" stroke-width="1" fill="blue" tooltip="enable"><title>(3.78314,2)</title></rect><rect x="576" y="199.918" width="6" height="0.0818666" stroke="black" stroke-width="1" fill="blue" tooltip="enable"><title>(3.82296,2)</title></rect><rect x="582" y="200" width="6" height="0" stroke="black" stroke-width="1" fill="blue" tooltip="enable"><title>(3.86278,0)</title></rect><rect x="588" y="199.754" width="6" height="0.2456" stroke="black" stroke-width="1" fill="blue" tooltip="enable"><title>(3.9026,6)</title></rect><rect x="594" y="199.754" width="6" height="0.2456" stroke="black" stroke-width="1" fill="blue" tooltip="enable"><title>(3.94243,6)</title></rect><text x="30" y="240" font-size="20" fill="black">0</text>
<text x="600" y="240" font-size="20" fill="black">3.98225</text>
<polyline points="0,220,600,220" stroke="black" stroke-width="1" fill="none"/>
<text x="720" y="20" font-size="20" fill="black">4886</text>
<text x="720" y="200" font-size="20" fill="black">0</text>
<polyline points="660,0,660,200" stroke="black" stroke-width="1" fill="none"/>
</svg>